{
	"patcher" : 	{
		"fileversion" : 1,
		"appversion" : 		{
			"major" : 8,
			"minor" : 0,
			"revision" : 8,
			"architecture" : "x64",
			"modernui" : 1
		}
,
		"classnamespace" : "box",
		"rect" : [ 325.0, 79.0, 1081.0, 787.0 ],
		"bglocked" : 0,
		"openinpresentation" : 0,
		"default_fontsize" : 12.0,
		"default_fontface" : 0,
		"default_fontname" : "Arial",
		"gridonopen" : 1,
		"gridsize" : [ 15.0, 15.0 ],
		"gridsnaponopen" : 1,
		"objectsnaponopen" : 1,
		"statusbarvisible" : 2,
		"toolbarvisible" : 1,
		"lefttoolbarpinned" : 0,
		"toptoolbarpinned" : 0,
		"righttoolbarpinned" : 0,
		"bottomtoolbarpinned" : 0,
		"toolbars_unpinned_last_save" : 0,
		"tallnewobj" : 0,
		"boxanimatetime" : 200,
		"enablehscroll" : 1,
		"enablevscroll" : 1,
		"devicewidth" : 0.0,
		"description" : "",
		"digest" : "",
		"tags" : "",
		"style" : "",
		"subpatcher_template" : "",
		"boxes" : [ 			{
				"box" : 				{
					"fontface" : 1,
					"fontsize" : 36.0,
					"id" : "obj-8",
					"maxclass" : "comment",
					"numinlets" : 1,
					"numoutlets" : 0,
					"patching_rect" : [ 247.164484322071075, 19.941859841346741, 423.289484322071075, 47.0 ],
					"text" : "____________________"
				}

			}
, 			{
				"box" : 				{
					"fontface" : 1,
					"fontsize" : 30.0,
					"id" : "obj-5",
					"maxclass" : "comment",
					"numinlets" : 1,
					"numoutlets" : 0,
					"patching_rect" : [ 247.164484322071075, 26.941859841346741, 423.289484322071075, 40.0 ],
					"text" : "The Audio Feature Extractor"
				}

			}
, 			{
				"box" : 				{
					"fontface" : 1,
					"id" : "obj-158",
					"linecount" : 2,
					"maxclass" : "comment",
					"numinlets" : 1,
					"numoutlets" : 0,
					"patching_rect" : [ 721.417458593845367, 508.849236320648288, 160.0, 33.0 ],
					"text" : "Amplitude Threshold\nBang when crossed"
				}

			}
, 			{
				"box" : 				{
					"format" : 6,
					"id" : "obj-153",
					"maxclass" : "flonum",
					"numinlets" : 1,
					"numoutlets" : 2,
					"outlettype" : [ "", "bang" ],
					"parameter_enable" : 0,
					"patching_rect" : [ 756.789484322071075, 483.157740903007493, 50.0, 22.0 ]
				}

			}
, 			{
				"box" : 				{
					"id" : "obj-151",
					"maxclass" : "button",
					"numinlets" : 1,
					"numoutlets" : 1,
					"outlettype" : [ "bang" ],
					"parameter_enable" : 0,
					"patching_rect" : [ 728.789484322071075, 483.157740903007493, 24.0, 24.0 ]
				}

			}
, 			{
				"box" : 				{
					"fontface" : 1,
					"id" : "obj-149",
					"maxclass" : "comment",
					"numinlets" : 1,
					"numoutlets" : 0,
					"patching_rect" : [ 643.289484322071075, 459.0, 163.0, 20.0 ],
					"text" : "Threshold"
				}

			}
, 			{
				"box" : 				{
					"fontface" : 1,
					"id" : "obj-148",
					"maxclass" : "comment",
					"numinlets" : 1,
					"numoutlets" : 0,
					"patching_rect" : [ 469.414484322071019, 294.559693844711319, 163.0, 20.0 ],
					"text" : "Smoothing Amount"
				}

			}
, 			{
				"box" : 				{
					"fontface" : 1,
					"id" : "obj-146",
					"maxclass" : "comment",
					"numinlets" : 1,
					"numoutlets" : 0,
					"patching_rect" : [ 327.685085927446721, 294.559693844711319, 75.0, 20.0 ],
					"text" : "Smooth I/O"
				}

			}
, 			{
				"box" : 				{
					"id" : "obj-144",
					"maxclass" : "slider",
					"numinlets" : 1,
					"numoutlets" : 1,
					"outlettype" : [ "" ],
					"parameter_enable" : 0,
					"patching_rect" : [ 629.789484322071075, 459.0, 177.0, 18.0 ],
					"size" : 1000.0
				}

			}
, 			{
				"box" : 				{
					"id" : "obj-143",
					"maxclass" : "newobj",
					"numinlets" : 2,
					"numoutlets" : 3,
					"outlettype" : [ "", "", "" ],
					"patcher" : 					{
						"fileversion" : 1,
						"appversion" : 						{
							"major" : 8,
							"minor" : 0,
							"revision" : 8,
							"architecture" : "x64",
							"modernui" : 1
						}
,
						"classnamespace" : "box",
						"rect" : [ 209.0, 228.0, 640.0, 480.0 ],
						"bglocked" : 0,
						"openinpresentation" : 0,
						"default_fontsize" : 12.0,
						"default_fontface" : 0,
						"default_fontname" : "Arial",
						"gridonopen" : 1,
						"gridsize" : [ 15.0, 15.0 ],
						"gridsnaponopen" : 1,
						"objectsnaponopen" : 1,
						"statusbarvisible" : 2,
						"toolbarvisible" : 1,
						"lefttoolbarpinned" : 0,
						"toptoolbarpinned" : 0,
						"righttoolbarpinned" : 0,
						"bottomtoolbarpinned" : 0,
						"toolbars_unpinned_last_save" : 0,
						"tallnewobj" : 0,
						"boxanimatetime" : 200,
						"enablehscroll" : 1,
						"enablevscroll" : 1,
						"devicewidth" : 0.0,
						"description" : "",
						"digest" : "",
						"tags" : "",
						"style" : "",
						"subpatcher_template" : "",
						"boxes" : [ 							{
								"box" : 								{
									"comment" : "",
									"id" : "obj-5",
									"index" : 3,
									"maxclass" : "outlet",
									"numinlets" : 1,
									"numoutlets" : 0,
									"patching_rect" : [ 255.25, 363.0, 30.0, 30.0 ]
								}

							}
, 							{
								"box" : 								{
									"comment" : "",
									"id" : "obj-4",
									"index" : 2,
									"maxclass" : "outlet",
									"numinlets" : 1,
									"numoutlets" : 0,
									"patching_rect" : [ 223.25, 363.0, 30.0, 30.0 ]
								}

							}
, 							{
								"box" : 								{
									"comment" : "",
									"id" : "obj-3",
									"index" : 1,
									"maxclass" : "outlet",
									"numinlets" : 1,
									"numoutlets" : 0,
									"patching_rect" : [ 190.0, 363.0, 30.0, 30.0 ]
								}

							}
, 							{
								"box" : 								{
									"comment" : "",
									"id" : "obj-2",
									"index" : 2,
									"maxclass" : "inlet",
									"numinlets" : 0,
									"numoutlets" : 1,
									"outlettype" : [ "" ],
									"patching_rect" : [ 223.0, 80.0, 30.0, 30.0 ]
								}

							}
, 							{
								"box" : 								{
									"comment" : "",
									"id" : "obj-1",
									"index" : 1,
									"maxclass" : "inlet",
									"numinlets" : 0,
									"numoutlets" : 1,
									"outlettype" : [ "" ],
									"patching_rect" : [ 190.0, 80.0, 30.0, 30.0 ]
								}

							}
, 							{
								"box" : 								{
									"id" : "obj-142",
									"maxclass" : "message",
									"numinlets" : 2,
									"numoutlets" : 1,
									"outlettype" : [ "" ],
									"patching_rect" : [ 223.25, 286.128073692321777, 29.5, 22.0 ],
									"text" : "0"
								}

							}
, 							{
								"box" : 								{
									"id" : "obj-140",
									"maxclass" : "message",
									"numinlets" : 2,
									"numoutlets" : 1,
									"outlettype" : [ "" ],
									"patching_rect" : [ 190.0, 286.128073692321777, 29.5, 22.0 ],
									"text" : "1"
								}

							}
, 							{
								"box" : 								{
									"id" : "obj-11",
									"maxclass" : "newobj",
									"numinlets" : 6,
									"numoutlets" : 1,
									"outlettype" : [ "" ],
									"patching_rect" : [ 223.0, 201.0, 103.0, 22.0 ],
									"text" : "scale 0 1000 0. 1."
								}

							}
, 							{
								"box" : 								{
									"id" : "obj-131",
									"maxclass" : "newobj",
									"numinlets" : 2,
									"numoutlets" : 1,
									"outlettype" : [ "int" ],
									"patching_rect" : [ 190.0, 231.128073692321777, 52.0, 22.0 ],
									"text" : "> 0.65"
								}

							}
, 							{
								"box" : 								{
									"id" : "obj-130",
									"maxclass" : "newobj",
									"numinlets" : 1,
									"numoutlets" : 2,
									"outlettype" : [ "bang", "bang" ],
									"patching_rect" : [ 190.0, 259.128073692321777, 52.0, 22.0 ],
									"text" : "togedge"
								}

							}
 ],
						"lines" : [ 							{
								"patchline" : 								{
									"destination" : [ "obj-131", 0 ],
									"source" : [ "obj-1", 0 ]
								}

							}
, 							{
								"patchline" : 								{
									"destination" : [ "obj-131", 1 ],
									"order" : 1,
									"source" : [ "obj-11", 0 ]
								}

							}
, 							{
								"patchline" : 								{
									"destination" : [ "obj-5", 0 ],
									"midpoints" : [ 232.5, 225.0, 252.0, 225.0, 252.0, 273.0, 264.75, 273.0 ],
									"order" : 0,
									"source" : [ "obj-11", 0 ]
								}

							}
, 							{
								"patchline" : 								{
									"destination" : [ "obj-140", 0 ],
									"source" : [ "obj-130", 0 ]
								}

							}
, 							{
								"patchline" : 								{
									"destination" : [ "obj-142", 0 ],
									"source" : [ "obj-130", 1 ]
								}

							}
, 							{
								"patchline" : 								{
									"destination" : [ "obj-130", 0 ],
									"source" : [ "obj-131", 0 ]
								}

							}
, 							{
								"patchline" : 								{
									"destination" : [ "obj-3", 0 ],
									"source" : [ "obj-140", 0 ]
								}

							}
, 							{
								"patchline" : 								{
									"destination" : [ "obj-4", 0 ],
									"source" : [ "obj-142", 0 ]
								}

							}
, 							{
								"patchline" : 								{
									"destination" : [ "obj-11", 0 ],
									"source" : [ "obj-2", 0 ]
								}

							}
 ],
						"styles" : [ 							{
								"name" : "master_style",
								"newobj" : 								{
									"accentcolor" : [ 0.65098, 0.666667, 0.662745, 1.0 ],
									"bgcolor" : [ 1.0, 1.0, 1.0, 1.0 ],
									"textcolor_inverse" : [ 0.0, 0.0, 0.0, 1.0 ]
								}
,
								"ezdac~" : 								{
									"color" : [ 0.0, 0.0, 0.0, 1.0 ],
									"elementcolor" : [ 0.862745, 0.870588, 0.878431, 1.0 ],
									"bgcolor" : [ 0.65098, 0.666667, 0.662745, 1.0 ]
								}
,
								"function" : 								{
									"color" : [ 0.0, 0.0, 0.0, 1.0 ],
									"bgcolor" : [ 0.65098, 0.666667, 0.662745, 1.0 ]
								}
,
								"toggle" : 								{
									"color" : [ 0.0, 0.0, 0.0, 1.0 ],
									"elementcolor" : [ 0.65098, 0.666667, 0.662745, 1.0 ],
									"bgcolor" : [ 0.682032, 0.698052, 0.748716, 1.0 ]
								}
,
								"multislider" : 								{
									"color" : [ 0.0, 0.0, 0.0, 1.0 ],
									"bgcolor" : [ 1.0, 1.0, 1.0, 1.0 ]
								}
,
								"ezadc~" : 								{
									"color" : [ 0.0, 0.0, 0.0, 1.0 ],
									"elementcolor" : [ 0.862745, 0.870588, 0.878431, 1.0 ],
									"bgcolor" : [ 0.65098, 0.666667, 0.662745, 1.0 ]
								}
,
								"gain~" : 								{
									"color" : [ 1.0, 0.861448, 0.16921, 1.0 ],
									"elementcolor" : [ 0.65098, 0.666667, 0.662745, 1.0 ]
								}
,
								"kslider" : 								{
									"color" : [ 1.0, 1.0, 1.0, 1.0 ],
									"elementcolor" : [ 0.65098, 0.666667, 0.662745, 1.0 ]
								}
,
								"slider" : 								{
									"color" : [ 0.461105, 0.492646, 0.591878, 1.0 ],
									"elementcolor" : [ 0.65098, 0.666667, 0.662745, 1.0 ],
									"bgcolor" : [ 1.0, 1.0, 1.0, 1.0 ]
								}
,
								"button" : 								{
									"color" : [ 1.0, 0.95051, 0.0, 1.0 ],
									"elementcolor" : [ 0.786675, 0.801885, 0.845022, 1.0 ],
									"bgcolor" : [ 0.682032, 0.698052, 0.748716, 1.0 ]
								}
,
								"attrui" : 								{
									"bgcolor" : [ 0.786675, 0.801885, 0.845022, 1.0 ],
									"textcolor_inverse" : [ 0.0, 0.0, 0.0, 1.0 ]
								}
,
								"message" : 								{
									"textcolor_inverse" : [ 0.0, 0.0, 0.0, 1.0 ],
									"bgfillcolor" : 									{
										"type" : "gradient",
										"color1" : [ 0.786675, 0.801885, 0.845022, 1.0 ],
										"color2" : [ 0.65098, 0.666667, 0.662745, 1.0 ],
										"color" : [ 0.290196, 0.309804, 0.301961, 1.0 ],
										"angle" : 270.0,
										"proportion" : 0.39,
										"autogradient" : 0.0
									}

								}
,
								"umenu" : 								{
									"bgfillcolor" : 									{
										"type" : "gradient",
										"color1" : [ 0.786675, 0.801885, 0.845022, 1.0 ],
										"color2" : [ 0.65098, 0.666667, 0.662745, 1.0 ],
										"color" : [ 0.290196, 0.309804, 0.301961, 1.0 ],
										"angle" : 270.0,
										"proportion" : 0.39,
										"autogradient" : 0
									}

								}
,
								"parentstyle" : "",
								"multi" : 0
							}
 ]
					}
,
					"patching_rect" : [ 572.789484322071075, 483.157740903007493, 76.0, 22.0 ],
					"saved_object_attributes" : 					{
						"description" : "",
						"digest" : "",
						"globalpatchername" : "",
						"tags" : ""
					}
,
					"text" : "p amptrigger"
				}

			}
, 			{
				"box" : 				{
					"id" : "obj-19",
					"maxclass" : "newobj",
					"numinlets" : 2,
					"numoutlets" : 1,
					"outlettype" : [ "" ],
					"patching_rect" : [ 572.789484322071075, 561.357676903007587, 32.0, 22.0 ],
					"text" : "gate"
				}

			}
, 			{
				"box" : 				{
					"fontface" : 1,
					"id" : "obj-116",
					"maxclass" : "comment",
					"numinlets" : 1,
					"numoutlets" : 0,
					"patching_rect" : [ 146.289484322071075, 450.916666746139526, 86.0, 20.0 ],
					"style" : "default",
					"text" : "Pitch (name)"
				}

			}
, 			{
				"box" : 				{
					"allowdrag" : 0,
					"arrow" : 0,
					"bgcolor" : [ 0.180392156862745, 0.176470588235294, 0.176470588235294, 1.0 ],
					"bgfillcolor_angle" : 270.0,
					"bgfillcolor_autogradient" : 0.0,
					"bgfillcolor_color" : [ 0.180392156862745, 0.176470588235294, 0.176470588235294, 1.0 ],
					"bgfillcolor_color1" : [ 0.0, 0.0, 0.0, 1.0 ],
					"bgfillcolor_color2" : [ 0.862745, 0.870588, 0.878431, 1.0 ],
					"bgfillcolor_proportion" : 0.39,
					"bgfillcolor_type" : "color",
					"fontsize" : 12.0,
					"id" : "obj-115",
					"items" : [ "C-2", ",", "Db-2", ",", "D-2", ",", "Eb-2", ",", "E-2", ",", "F-2", ",", "Gb-2", ",", "G-2", ",", "Ab-2", ",", "A-2", ",", "Bb-2", ",", "B-2", ",", "C-1", ",", "Db-1", ",", "D-1", ",", "Eb-1", ",", "E-1", ",", "F-1", ",", "Gb-1", ",", "G-1", ",", "Ab-1", ",", "A-1", ",", "Bb-1", ",", "B-1", ",", "C0", ",", "Db0", ",", "D0", ",", "Eb0", ",", "E0", ",", "F0", ",", "Gb0", ",", "G0", ",", "Ab0", ",", "A0", ",", "Bb0", ",", "B0", ",", "C1", ",", "Db1", ",", "D1", ",", "Eb1", ",", "E1", ",", "F1", ",", "Gb1", ",", "G1", ",", "Ab1", ",", "A1", ",", "Bb1", ",", "B1", ",", "C2", ",", "Db2", ",", "D2", ",", "Eb2", ",", "E2", ",", "F2", ",", "Gb2", ",", "G2", ",", "Ab2", ",", "A2", ",", "Bb2", ",", "B2", ",", "C3", ",", "Db3", ",", "D3", ",", "Eb3", ",", "E3", ",", "F3", ",", "Gb3", ",", "G3", ",", "Ab3", ",", "A3", ",", "Bb3", ",", "B3", ",", "C4", ",", "Db4", ",", "D4", ",", "Eb4", ",", "E4", ",", "F4", ",", "Gb4", ",", "G4", ",", "Ab4", ",", "A4", ",", "Bb4", ",", "B4", ",", "C5", ",", "Db5", ",", "D5", ",", "Eb5", ",", "E5", ",", "F5", ",", "Gb5", ",", "G5", ",", "Ab5", ",", "A5", ",", "Bb5", ",", "B5", ",", "C6", ",", "Db6", ",", "D6", ",", "Eb6", ",", "E6", ",", "F6", ",", "Gb6", ",", "G6", ",", "Ab6", ",", "A6", ",", "Bb6", ",", "B6", ",", "C7", ",", "Db7", ",", "D7", ",", "Eb7", ",", "E7", ",", "F7", ",", "Gb7", ",", "G7", ",", "Ab7", ",", "A7", ",", "Bb7", ",", "B7", ",", "C8", ",", "Db8", ",", "D8", ",", "Eb8", ",", "E8", ",", "F8", ",", "Gb8" ],
					"maxclass" : "umenu",
					"numinlets" : 1,
					"numoutlets" : 3,
					"outlettype" : [ "int", "", "" ],
					"parameter_enable" : 0,
					"patching_rect" : [ 146.289484322071075, 426.849236320648288, 45.0, 22.0 ]
				}

			}
, 			{
				"box" : 				{
					"id" : "obj-111",
					"maxclass" : "newobj",
					"numinlets" : 1,
					"numoutlets" : 1,
					"outlettype" : [ "" ],
					"patching_rect" : [ 146.289484322071075, 399.157725903007531, 32.0, 22.0 ],
					"text" : "ftom"
				}

			}
, 			{
				"box" : 				{
					"id" : "obj-106",
					"maxclass" : "slider",
					"numinlets" : 1,
					"numoutlets" : 1,
					"outlettype" : [ "" ],
					"parameter_enable" : 0,
					"patching_rect" : [ 459.414484322071019, 294.559693844711319, 177.0, 18.0 ],
					"size" : 1000.0
				}

			}
, 			{
				"box" : 				{
					"id" : "obj-103",
					"maxclass" : "toggle",
					"numinlets" : 1,
					"numoutlets" : 1,
					"outlettype" : [ "int" ],
					"parameter_enable" : 0,
					"patching_rect" : [ 396.789484322071019, 291.559693844711319, 24.0, 24.0 ]
				}

			}
, 			{
				"box" : 				{
					"format" : 6,
					"id" : "obj-84",
					"maxclass" : "flonum",
					"numinlets" : 1,
					"numoutlets" : 2,
					"outlettype" : [ "", "bang" ],
					"parameter_enable" : 0,
					"patching_rect" : [ 146.289484322071075, 353.157725903007531, 54.0, 22.0 ],
					"style" : "default",
					"triscale" : 0.9
				}

			}
, 			{
				"box" : 				{
					"fontface" : 1,
					"id" : "obj-123",
					"maxclass" : "comment",
					"numinlets" : 1,
					"numoutlets" : 0,
					"patching_rect" : [ 156.289484322071075, 377.157725903007531, 64.0, 20.0 ],
					"style" : "default",
					"text" : "Pitch (Hz)"
				}

			}
, 			{
				"box" : 				{
					"id" : "obj-101",
					"maxclass" : "newobj",
					"numinlets" : 6,
					"numoutlets" : 4,
					"outlettype" : [ "float", "", "", "" ],
					"patcher" : 					{
						"fileversion" : 1,
						"appversion" : 						{
							"major" : 8,
							"minor" : 0,
							"revision" : 8,
							"architecture" : "x64",
							"modernui" : 1
						}
,
						"classnamespace" : "box",
						"rect" : [ 635.0, 163.0, 640.0, 480.0 ],
						"bglocked" : 0,
						"openinpresentation" : 0,
						"default_fontsize" : 12.0,
						"default_fontface" : 0,
						"default_fontname" : "Arial",
						"gridonopen" : 1,
						"gridsize" : [ 15.0, 15.0 ],
						"gridsnaponopen" : 1,
						"objectsnaponopen" : 1,
						"statusbarvisible" : 2,
						"toolbarvisible" : 1,
						"lefttoolbarpinned" : 0,
						"toptoolbarpinned" : 0,
						"righttoolbarpinned" : 0,
						"bottomtoolbarpinned" : 0,
						"toolbars_unpinned_last_save" : 0,
						"tallnewobj" : 0,
						"boxanimatetime" : 200,
						"enablehscroll" : 1,
						"enablevscroll" : 1,
						"devicewidth" : 0.0,
						"description" : "",
						"digest" : "",
						"tags" : "",
						"style" : "",
						"subpatcher_template" : "",
						"boxes" : [ 							{
								"box" : 								{
									"id" : "obj-11",
									"maxclass" : "newobj",
									"numinlets" : 6,
									"numoutlets" : 1,
									"outlettype" : [ "" ],
									"patching_rect" : [ 563.968814134597778, 79.871926307678223, 103.0, 22.0 ],
									"text" : "scale 0 1000 0. 1."
								}

							}
, 							{
								"box" : 								{
									"comment" : "",
									"id" : "obj-10",
									"index" : 6,
									"maxclass" : "inlet",
									"numinlets" : 0,
									"numoutlets" : 1,
									"outlettype" : [ "" ],
									"patching_rect" : [ 563.968814134597778, 40.0, 30.0, 30.0 ]
								}

							}
, 							{
								"box" : 								{
									"comment" : "",
									"id" : "obj-9",
									"index" : 5,
									"maxclass" : "inlet",
									"numinlets" : 0,
									"numoutlets" : 1,
									"outlettype" : [ "int" ],
									"patching_rect" : [ 476.968814134597778, 40.0, 30.0, 30.0 ]
								}

							}
, 							{
								"box" : 								{
									"id" : "obj-69",
									"maxclass" : "newobj",
									"numinlets" : 1,
									"numoutlets" : 1,
									"outlettype" : [ "" ],
									"patching_rect" : [ 563.968814134597778, 155.202746748924255, 87.0, 22.0 ],
									"text" : "loadmess 0.75"
								}

							}
, 							{
								"box" : 								{
									"format" : 6,
									"id" : "obj-59",
									"maxclass" : "flonum",
									"numinlets" : 1,
									"numoutlets" : 2,
									"outlettype" : [ "", "bang" ],
									"parameter_enable" : 0,
									"patching_rect" : [ 168.8911252617836, 205.598351359367371, 50.0, 22.0 ]
								}

							}
, 							{
								"box" : 								{
									"id" : "obj-62",
									"int" : 1,
									"maxclass" : "gswitch",
									"numinlets" : 3,
									"numoutlets" : 1,
									"outlettype" : [ "" ],
									"parameter_enable" : 0,
									"patching_rect" : [ 114.0, 269.762036681175232, 41.0, 32.0 ]
								}

							}
, 							{
								"box" : 								{
									"id" : "obj-63",
									"maxclass" : "newobj",
									"numinlets" : 2,
									"numoutlets" : 2,
									"outlettype" : [ "", "" ],
									"patching_rect" : [ 135.8911252617836, 234.50665557384491, 52.0, 22.0 ],
									"text" : "smoothr",
									"varname" : "vz.smoothr[2]"
								}

							}
, 							{
								"box" : 								{
									"id" : "obj-64",
									"maxclass" : "newobj",
									"numinlets" : 6,
									"numoutlets" : 1,
									"outlettype" : [ "" ],
									"patching_rect" : [ 125.0, 98.553245902061462, 107.0, 22.0 ],
									"text" : "scale -96. 30. 0. 1."
								}

							}
, 							{
								"box" : 								{
									"format" : 6,
									"id" : "obj-45",
									"maxclass" : "flonum",
									"numinlets" : 1,
									"numoutlets" : 2,
									"outlettype" : [ "", "bang" ],
									"parameter_enable" : 0,
									"patching_rect" : [ 418.0, 205.598351359367371, 50.0, 22.0 ]
								}

							}
, 							{
								"box" : 								{
									"id" : "obj-47",
									"maxclass" : "toggle",
									"numinlets" : 1,
									"numoutlets" : 1,
									"outlettype" : [ "int" ],
									"parameter_enable" : 0,
									"patching_rect" : [ 476.968814134597778, 78.871926307678223, 24.0, 24.0 ]
								}

							}
, 							{
								"box" : 								{
									"id" : "obj-51",
									"int" : 1,
									"maxclass" : "gswitch",
									"numinlets" : 3,
									"numoutlets" : 1,
									"outlettype" : [ "" ],
									"parameter_enable" : 0,
									"patching_rect" : [ 363.0, 269.762036681175232, 41.0, 32.0 ]
								}

							}
, 							{
								"box" : 								{
									"id" : "obj-52",
									"maxclass" : "newobj",
									"numinlets" : 2,
									"numoutlets" : 2,
									"outlettype" : [ "", "" ],
									"patching_rect" : [ 385.0, 234.50665557384491, 52.0, 22.0 ],
									"text" : "smoothr",
									"varname" : "vz.smoothr[1]"
								}

							}
, 							{
								"box" : 								{
									"format" : 6,
									"id" : "obj-44",
									"maxclass" : "flonum",
									"numinlets" : 1,
									"numoutlets" : 2,
									"outlettype" : [ "", "bang" ],
									"parameter_enable" : 0,
									"patching_rect" : [ 292.8911252617836, 205.598351359367371, 50.0, 22.0 ]
								}

							}
, 							{
								"box" : 								{
									"id" : "obj-42",
									"int" : 1,
									"maxclass" : "gswitch",
									"numinlets" : 3,
									"numoutlets" : 1,
									"outlettype" : [ "" ],
									"parameter_enable" : 0,
									"patching_rect" : [ 237.8911252617836, 269.762036681175232, 41.0, 32.0 ]
								}

							}
, 							{
								"box" : 								{
									"id" : "obj-39",
									"maxclass" : "newobj",
									"numinlets" : 2,
									"numoutlets" : 2,
									"outlettype" : [ "", "" ],
									"patching_rect" : [ 259.8911252617836, 234.50665557384491, 52.0, 22.0 ],
									"text" : "smoothr",
									"varname" : "vz.smoothr"
								}

							}
, 							{
								"box" : 								{
									"id" : "obj-36",
									"maxclass" : "newobj",
									"numinlets" : 6,
									"numoutlets" : 1,
									"outlettype" : [ "" ],
									"patching_rect" : [ 248.8911252617836, 98.553245902061462, 117.0, 22.0 ],
									"text" : "scale 0. 22500. 0. 1."
								}

							}
, 							{
								"box" : 								{
									"id" : "obj-86",
									"maxclass" : "newobj",
									"numinlets" : 1,
									"numoutlets" : 2,
									"outlettype" : [ "float", "float" ],
									"patching_rect" : [ 29.0, 98.553245902061462, 77.5, 22.0 ],
									"style" : "default",
									"text" : "unpack 0. 0."
								}

							}
, 							{
								"box" : 								{
									"comment" : "",
									"id" : "obj-8",
									"index" : 4,
									"maxclass" : "outlet",
									"numinlets" : 1,
									"numoutlets" : 0,
									"patching_rect" : [ 363.0, 312.0, 30.0, 30.0 ]
								}

							}
, 							{
								"box" : 								{
									"comment" : "",
									"id" : "obj-7",
									"index" : 3,
									"maxclass" : "outlet",
									"numinlets" : 1,
									"numoutlets" : 0,
									"patching_rect" : [ 237.8911252617836, 312.0, 30.0, 30.0 ]
								}

							}
, 							{
								"box" : 								{
									"comment" : "",
									"id" : "obj-6",
									"index" : 2,
									"maxclass" : "outlet",
									"numinlets" : 1,
									"numoutlets" : 0,
									"patching_rect" : [ 114.0, 312.0, 30.0, 30.0 ]
								}

							}
, 							{
								"box" : 								{
									"comment" : "",
									"id" : "obj-5",
									"index" : 1,
									"maxclass" : "outlet",
									"numinlets" : 1,
									"numoutlets" : 0,
									"patching_rect" : [ 29.0, 312.0, 30.0, 30.0 ]
								}

							}
, 							{
								"box" : 								{
									"comment" : "",
									"id" : "obj-4",
									"index" : 4,
									"maxclass" : "inlet",
									"numinlets" : 0,
									"numoutlets" : 1,
									"outlettype" : [ "float" ],
									"patching_rect" : [ 374.0, 40.0, 30.0, 30.0 ]
								}

							}
, 							{
								"box" : 								{
									"comment" : "",
									"id" : "obj-3",
									"index" : 3,
									"maxclass" : "inlet",
									"numinlets" : 0,
									"numoutlets" : 1,
									"outlettype" : [ "float" ],
									"patching_rect" : [ 248.8911252617836, 40.0, 30.0, 30.0 ]
								}

							}
, 							{
								"box" : 								{
									"comment" : "",
									"id" : "obj-2",
									"index" : 2,
									"maxclass" : "inlet",
									"numinlets" : 0,
									"numoutlets" : 1,
									"outlettype" : [ "float" ],
									"patching_rect" : [ 125.0, 40.0, 30.0, 30.0 ]
								}

							}
, 							{
								"box" : 								{
									"comment" : "",
									"id" : "obj-1",
									"index" : 1,
									"maxclass" : "inlet",
									"numinlets" : 0,
									"numoutlets" : 1,
									"outlettype" : [ "list" ],
									"patching_rect" : [ 29.0, 40.0, 30.0, 30.0 ]
								}

							}
 ],
						"lines" : [ 							{
								"patchline" : 								{
									"destination" : [ "obj-86", 0 ],
									"source" : [ "obj-1", 0 ]
								}

							}
, 							{
								"patchline" : 								{
									"destination" : [ "obj-11", 0 ],
									"source" : [ "obj-10", 0 ]
								}

							}
, 							{
								"patchline" : 								{
									"destination" : [ "obj-44", 0 ],
									"midpoints" : [ 573.468814134597778, 141.0, 302.3911252617836, 141.0 ],
									"order" : 1,
									"source" : [ "obj-11", 0 ]
								}

							}
, 							{
								"patchline" : 								{
									"destination" : [ "obj-45", 0 ],
									"midpoints" : [ 573.468814134597778, 141.0, 427.5, 141.0 ],
									"order" : 0,
									"source" : [ "obj-11", 0 ]
								}

							}
, 							{
								"patchline" : 								{
									"destination" : [ "obj-59", 0 ],
									"midpoints" : [ 573.468814134597778, 141.0, 178.3911252617836, 141.0 ],
									"order" : 2,
									"source" : [ "obj-11", 0 ]
								}

							}
, 							{
								"patchline" : 								{
									"destination" : [ "obj-64", 0 ],
									"source" : [ "obj-2", 0 ]
								}

							}
, 							{
								"patchline" : 								{
									"destination" : [ "obj-36", 0 ],
									"source" : [ "obj-3", 0 ]
								}

							}
, 							{
								"patchline" : 								{
									"destination" : [ "obj-39", 0 ],
									"midpoints" : [ 258.3911252617836, 219.0, 269.3911252617836, 219.0 ],
									"order" : 0,
									"source" : [ "obj-36", 0 ]
								}

							}
, 							{
								"patchline" : 								{
									"destination" : [ "obj-42", 1 ],
									"order" : 1,
									"source" : [ "obj-36", 0 ]
								}

							}
, 							{
								"patchline" : 								{
									"destination" : [ "obj-42", 2 ],
									"source" : [ "obj-39", 0 ]
								}

							}
, 							{
								"patchline" : 								{
									"destination" : [ "obj-51", 1 ],
									"order" : 1,
									"source" : [ "obj-4", 0 ]
								}

							}
, 							{
								"patchline" : 								{
									"destination" : [ "obj-52", 0 ],
									"midpoints" : [ 383.5, 219.0, 394.5, 219.0 ],
									"order" : 0,
									"source" : [ "obj-4", 0 ]
								}

							}
, 							{
								"patchline" : 								{
									"destination" : [ "obj-7", 0 ],
									"source" : [ "obj-42", 0 ]
								}

							}
, 							{
								"patchline" : 								{
									"destination" : [ "obj-39", 1 ],
									"source" : [ "obj-44", 0 ]
								}

							}
, 							{
								"patchline" : 								{
									"destination" : [ "obj-52", 1 ],
									"source" : [ "obj-45", 0 ]
								}

							}
, 							{
								"patchline" : 								{
									"destination" : [ "obj-42", 0 ],
									"midpoints" : [ 486.468814134597778, 192.0, 247.3911252617836, 192.0 ],
									"order" : 1,
									"source" : [ "obj-47", 0 ]
								}

							}
, 							{
								"patchline" : 								{
									"destination" : [ "obj-51", 0 ],
									"midpoints" : [ 486.468814134597778, 192.0, 372.5, 192.0 ],
									"order" : 0,
									"source" : [ "obj-47", 0 ]
								}

							}
, 							{
								"patchline" : 								{
									"destination" : [ "obj-62", 0 ],
									"midpoints" : [ 486.468814134597778, 192.0, 120.0, 192.0, 120.0, 264.0, 123.5, 264.0 ],
									"order" : 2,
									"source" : [ "obj-47", 0 ]
								}

							}
, 							{
								"patchline" : 								{
									"destination" : [ "obj-8", 0 ],
									"source" : [ "obj-51", 0 ]
								}

							}
, 							{
								"patchline" : 								{
									"destination" : [ "obj-51", 2 ],
									"source" : [ "obj-52", 0 ]
								}

							}
, 							{
								"patchline" : 								{
									"destination" : [ "obj-63", 1 ],
									"source" : [ "obj-59", 0 ]
								}

							}
, 							{
								"patchline" : 								{
									"destination" : [ "obj-6", 0 ],
									"source" : [ "obj-62", 0 ]
								}

							}
, 							{
								"patchline" : 								{
									"destination" : [ "obj-62", 2 ],
									"source" : [ "obj-63", 0 ]
								}

							}
, 							{
								"patchline" : 								{
									"destination" : [ "obj-62", 1 ],
									"order" : 1,
									"source" : [ "obj-64", 0 ]
								}

							}
, 							{
								"patchline" : 								{
									"destination" : [ "obj-63", 0 ],
									"midpoints" : [ 134.5, 219.0, 145.3911252617836, 219.0 ],
									"order" : 0,
									"source" : [ "obj-64", 0 ]
								}

							}
, 							{
								"patchline" : 								{
									"destination" : [ "obj-44", 0 ],
									"midpoints" : [ 573.468814134597778, 192.0, 302.3911252617836, 192.0 ],
									"order" : 1,
									"source" : [ "obj-69", 0 ]
								}

							}
, 							{
								"patchline" : 								{
									"destination" : [ "obj-45", 0 ],
									"midpoints" : [ 573.468814134597778, 192.0, 427.5, 192.0 ],
									"order" : 0,
									"source" : [ "obj-69", 0 ]
								}

							}
, 							{
								"patchline" : 								{
									"destination" : [ "obj-59", 0 ],
									"midpoints" : [ 573.468814134597778, 192.0, 178.3911252617836, 192.0 ],
									"order" : 2,
									"source" : [ "obj-69", 0 ]
								}

							}
, 							{
								"patchline" : 								{
									"destination" : [ "obj-5", 0 ],
									"source" : [ "obj-86", 1 ]
								}

							}
, 							{
								"patchline" : 								{
									"destination" : [ "obj-47", 0 ],
									"source" : [ "obj-9", 0 ]
								}

							}
 ],
						"styles" : [ 							{
								"name" : "master_style",
								"newobj" : 								{
									"accentcolor" : [ 0.65098, 0.666667, 0.662745, 1.0 ],
									"bgcolor" : [ 1.0, 1.0, 1.0, 1.0 ],
									"textcolor_inverse" : [ 0.0, 0.0, 0.0, 1.0 ]
								}
,
								"ezdac~" : 								{
									"color" : [ 0.0, 0.0, 0.0, 1.0 ],
									"elementcolor" : [ 0.862745, 0.870588, 0.878431, 1.0 ],
									"bgcolor" : [ 0.65098, 0.666667, 0.662745, 1.0 ]
								}
,
								"function" : 								{
									"color" : [ 0.0, 0.0, 0.0, 1.0 ],
									"bgcolor" : [ 0.65098, 0.666667, 0.662745, 1.0 ]
								}
,
								"toggle" : 								{
									"color" : [ 0.0, 0.0, 0.0, 1.0 ],
									"elementcolor" : [ 0.65098, 0.666667, 0.662745, 1.0 ],
									"bgcolor" : [ 0.682032, 0.698052, 0.748716, 1.0 ]
								}
,
								"multislider" : 								{
									"color" : [ 0.0, 0.0, 0.0, 1.0 ],
									"bgcolor" : [ 1.0, 1.0, 1.0, 1.0 ]
								}
,
								"ezadc~" : 								{
									"color" : [ 0.0, 0.0, 0.0, 1.0 ],
									"elementcolor" : [ 0.862745, 0.870588, 0.878431, 1.0 ],
									"bgcolor" : [ 0.65098, 0.666667, 0.662745, 1.0 ]
								}
,
								"gain~" : 								{
									"color" : [ 1.0, 0.861448, 0.16921, 1.0 ],
									"elementcolor" : [ 0.65098, 0.666667, 0.662745, 1.0 ]
								}
,
								"kslider" : 								{
									"color" : [ 1.0, 1.0, 1.0, 1.0 ],
									"elementcolor" : [ 0.65098, 0.666667, 0.662745, 1.0 ]
								}
,
								"slider" : 								{
									"color" : [ 0.461105, 0.492646, 0.591878, 1.0 ],
									"elementcolor" : [ 0.65098, 0.666667, 0.662745, 1.0 ],
									"bgcolor" : [ 1.0, 1.0, 1.0, 1.0 ]
								}
,
								"button" : 								{
									"color" : [ 1.0, 0.95051, 0.0, 1.0 ],
									"elementcolor" : [ 0.786675, 0.801885, 0.845022, 1.0 ],
									"bgcolor" : [ 0.682032, 0.698052, 0.748716, 1.0 ]
								}
,
								"attrui" : 								{
									"bgcolor" : [ 0.786675, 0.801885, 0.845022, 1.0 ],
									"textcolor_inverse" : [ 0.0, 0.0, 0.0, 1.0 ]
								}
,
								"message" : 								{
									"textcolor_inverse" : [ 0.0, 0.0, 0.0, 1.0 ],
									"bgfillcolor" : 									{
										"type" : "gradient",
										"color1" : [ 0.786675, 0.801885, 0.845022, 1.0 ],
										"color2" : [ 0.65098, 0.666667, 0.662745, 1.0 ],
										"color" : [ 0.290196, 0.309804, 0.301961, 1.0 ],
										"angle" : 270.0,
										"proportion" : 0.39,
										"autogradient" : 0.0
									}

								}
,
								"umenu" : 								{
									"bgfillcolor" : 									{
										"type" : "gradient",
										"color1" : [ 0.786675, 0.801885, 0.845022, 1.0 ],
										"color2" : [ 0.65098, 0.666667, 0.662745, 1.0 ],
										"color" : [ 0.290196, 0.309804, 0.301961, 1.0 ],
										"angle" : 270.0,
										"proportion" : 0.39,
										"autogradient" : 0
									}

								}
,
								"parentstyle" : "",
								"multi" : 0
							}
 ]
					}
,
					"patching_rect" : [ 146.289484322071075, 322.921482832824722, 332.124999999999773, 22.0 ],
					"saved_object_attributes" : 					{
						"description" : "",
						"digest" : "",
						"globalpatchername" : "",
						"tags" : ""
					}
,
					"text" : "p Smooth_Scale",
					"varname" : "smooth"
				}

			}
, 			{
				"box" : 				{
					"contdata" : 1,
					"id" : "obj-99",
					"maxclass" : "multislider",
					"numinlets" : 1,
					"numoutlets" : 2,
					"outlettype" : [ "", "" ],
					"parameter_enable" : 0,
					"patching_rect" : [ 250.664484322071075, 399.157725903007531, 17.0, 355.0 ],
					"setminmax" : [ 0.0, 1.0 ],
					"size" : 25,
					"style" : "default"
				}

			}
, 			{
				"box" : 				{
					"contdata" : 1,
					"id" : "obj-98",
					"maxclass" : "multislider",
					"numinlets" : 1,
					"numoutlets" : 2,
					"outlettype" : [ "", "" ],
					"parameter_enable" : 0,
					"patching_rect" : [ 354.685085927446721, 399.157725903007531, 17.0, 355.0 ],
					"setminmax" : [ 0.0, 1.0 ],
					"size" : 25,
					"style" : "default"
				}

			}
, 			{
				"box" : 				{
					"fontface" : 1,
					"id" : "obj-6",
					"maxclass" : "comment",
					"numinlets" : 1,
					"numoutlets" : 0,
					"patching_rect" : [ 365.572446872790692, 377.157725903007531, 75.0, 20.0 ],
					"style" : "default",
					"text" : "Brightness"
				}

			}
, 			{
				"box" : 				{
					"id" : "obj-24",
					"maxclass" : "comment",
					"numinlets" : 1,
					"numoutlets" : 0,
					"patching_rect" : [ 494.414484322071019, 399.157725903007531, 40.0, 20.0 ],
					"style" : "default",
					"text" : "noisy"
				}

			}
, 			{
				"box" : 				{
					"id" : "obj-26",
					"maxclass" : "comment",
					"numinlets" : 1,
					"numoutlets" : 0,
					"patching_rect" : [ 477.414484322071019, 667.957713903007516, 25.0, 20.0 ],
					"style" : "default",
					"text" : "0.2"
				}

			}
, 			{
				"box" : 				{
					"id" : "obj-27",
					"maxclass" : "comment",
					"numinlets" : 1,
					"numoutlets" : 0,
					"patching_rect" : [ 477.414484322071019, 600.757701903007501, 25.0, 20.0 ],
					"style" : "default",
					"text" : "0.4"
				}

			}
, 			{
				"box" : 				{
					"id" : "obj-28",
					"maxclass" : "comment",
					"numinlets" : 1,
					"numoutlets" : 0,
					"patching_rect" : [ 477.414484322071019, 533.557688903007602, 25.0, 20.0 ],
					"style" : "default",
					"text" : "0.6"
				}

			}
, 			{
				"box" : 				{
					"id" : "obj-83",
					"maxclass" : "comment",
					"numinlets" : 1,
					"numoutlets" : 0,
					"patching_rect" : [ 477.414484322071019, 466.357752903007508, 25.0, 20.0 ],
					"style" : "default",
					"text" : "0.8"
				}

			}
, 			{
				"box" : 				{
					"contdata" : 1,
					"id" : "obj-30",
					"maxclass" : "multislider",
					"numinlets" : 1,
					"numoutlets" : 2,
					"outlettype" : [ "", "" ],
					"parameter_enable" : 0,
					"patching_rect" : [ 459.414484322071019, 399.157725903007531, 17.0, 355.0 ],
					"setminmax" : [ 0.0, 1.0 ],
					"size" : 25,
					"style" : "default"
				}

			}
, 			{
				"box" : 				{
					"id" : "obj-85",
					"maxclass" : "comment",
					"numinlets" : 1,
					"numoutlets" : 0,
					"patching_rect" : [ 305.550832127531407, 735.157725903007531, 51.0, 20.0 ],
					"style" : "default",
					"text" : "22 KHz"
				}

			}
, 			{
				"box" : 				{
					"id" : "obj-33",
					"maxclass" : "comment",
					"numinlets" : 1,
					"numoutlets" : 0,
					"patching_rect" : [ 320.938962941368459, 399.157725903007531, 36.0, 20.0 ],
					"style" : "default",
					"text" : "0 Hz"
				}

			}
, 			{
				"box" : 				{
					"id" : "obj-34",
					"maxclass" : "comment",
					"numinlets" : 1,
					"numoutlets" : 0,
					"patching_rect" : [ 305.550832127531407, 549.157725903007531, 51.0, 20.0 ],
					"style" : "default",
					"text" : "10 KHz"
				}

			}
, 			{
				"box" : 				{
					"id" : "obj-35",
					"maxclass" : "comment",
					"numinlets" : 1,
					"numoutlets" : 0,
					"patching_rect" : [ 201.164484322071075, 651.157725903007531, 46.0, 20.0 ],
					"style" : "default",
					"text" : "-60 dB"
				}

			}
, 			{
				"box" : 				{
					"id" : "obj-90",
					"maxclass" : "comment",
					"numinlets" : 1,
					"numoutlets" : 0,
					"patching_rect" : [ 201.164484322071075, 735.157725903007531, 46.0, 20.0 ],
					"style" : "default",
					"text" : "-96 dB"
				}

			}
, 			{
				"box" : 				{
					"id" : "obj-91",
					"maxclass" : "comment",
					"numinlets" : 1,
					"numoutlets" : 0,
					"patching_rect" : [ 207.664484322071075, 399.157725903007531, 42.0, 20.0 ],
					"style" : "default",
					"text" : "30 dB"
				}

			}
, 			{
				"box" : 				{
					"id" : "obj-43",
					"maxclass" : "comment",
					"numinlets" : 1,
					"numoutlets" : 0,
					"patching_rect" : [ 212.664484322071075, 483.157740903007493, 36.0, 20.0 ],
					"style" : "default",
					"text" : "0 dB"
				}

			}
, 			{
				"box" : 				{
					"id" : "obj-93",
					"maxclass" : "comment",
					"numinlets" : 1,
					"numoutlets" : 0,
					"patching_rect" : [ 201.164484322071075, 567.157725903007531, 46.0, 20.0 ],
					"style" : "default",
					"text" : "-30 dB"
				}

			}
, 			{
				"box" : 				{
					"id" : "obj-94",
					"maxclass" : "comment",
					"numinlets" : 1,
					"numoutlets" : 0,
					"patching_rect" : [ 477.414484322071019, 735.157725903007531, 21.0, 20.0 ],
					"style" : "default",
					"text" : "0"
				}

			}
, 			{
				"box" : 				{
					"id" : "obj-46",
					"maxclass" : "comment",
					"numinlets" : 1,
					"numoutlets" : 0,
					"patching_rect" : [ 477.414484322071019, 399.157725903007531, 21.0, 20.0 ],
					"style" : "default",
					"text" : "1"
				}

			}
, 			{
				"box" : 				{
					"fontface" : 1,
					"id" : "obj-133",
					"maxclass" : "comment",
					"numinlets" : 1,
					"numoutlets" : 0,
					"patching_rect" : [ 261.313827062646567, 377.157725903007531, 69.0, 20.0 ],
					"style" : "default",
					"text" : "Loudness"
				}

			}
, 			{
				"box" : 				{
					"fontface" : 1,
					"id" : "obj-134",
					"maxclass" : "comment",
					"numinlets" : 1,
					"numoutlets" : 0,
					"patching_rect" : [ 469.465927258133831, 377.157725903007531, 69.0, 20.0 ],
					"style" : "default",
					"text" : "Noisiness"
				}

			}
, 			{
				"box" : 				{
					"id" : "obj-73",
					"maxclass" : "message",
					"numinlets" : 2,
					"numoutlets" : 1,
					"outlettype" : [ "" ],
					"patching_rect" : [ 712.744185090065002, 393.762036681175232, 100.0, 22.0 ],
					"style" : "default",
					"text" : "print"
				}

			}
, 			{
				"box" : 				{
					"id" : "obj-74",
					"maxclass" : "message",
					"numinlets" : 2,
					"numoutlets" : 1,
					"outlettype" : [ "" ],
					"patching_rect" : [ 712.744185090065002, 325.762036681175232, 100.0, 22.0 ],
					"style" : "default",
					"text" : "npartial 7"
				}

			}
, 			{
				"box" : 				{
					"id" : "obj-66",
					"maxclass" : "message",
					"numinlets" : 2,
					"numoutlets" : 1,
					"outlettype" : [ "" ],
					"patching_rect" : [ 712.744185090065002, 245.762036681175232, 100.0, 22.0 ],
					"style" : "default",
					"text" : "reattack 100 10"
				}

			}
, 			{
				"box" : 				{
					"id" : "obj-67",
					"maxclass" : "message",
					"numinlets" : 2,
					"numoutlets" : 1,
					"outlettype" : [ "" ],
					"patching_rect" : [ 712.744185090065002, 177.762036681175232, 100.0, 22.0 ],
					"style" : "default",
					"text" : "vibrato 50 0.5"
				}

			}
, 			{
				"box" : 				{
					"id" : "obj-75",
					"maxclass" : "message",
					"numinlets" : 2,
					"numoutlets" : 1,
					"outlettype" : [ "" ],
					"patching_rect" : [ 712.744185090065002, 109.762036681175232, 100.0, 22.0 ],
					"style" : "default",
					"text" : "amp-range 40 50"
				}

			}
, 			{
				"box" : 				{
					"id" : "obj-76",
					"linecount" : 4,
					"maxclass" : "comment",
					"numinlets" : 1,
					"numoutlets" : 0,
					"patching_rect" : [ 816.494185090065002, 109.762036681175232, 270.375, 60.0 ],
					"style" : "default",
					"text" : "• A low and high amplitude threshold: if signal amplitude is below the low threshold, no pitches or peaks are output. The high threshold is a minimum at which \"cooked\" outputs may appear."
				}

			}
, 			{
				"box" : 				{
					"id" : "obj-78",
					"linecount" : 4,
					"maxclass" : "comment",
					"numinlets" : 1,
					"numoutlets" : 0,
					"patching_rect" : [ 816.494185090065002, 177.762036681175232, 273.0, 60.0 ],
					"style" : "default",
					"text" : "• A period in milliseconds (50) over which the raw pitch may not deviate more than an interval in half-tones (0.5) from the average pitch to report it as a note to the \"cooked\" pitch outlet."
				}

			}
, 			{
				"box" : 				{
					"id" : "obj-79",
					"linecount" : 5,
					"maxclass" : "comment",
					"numinlets" : 1,
					"numoutlets" : 0,
					"patching_rect" : [ 816.494185090065002, 245.762036681175232, 271.0, 74.0 ],
					"style" : "default",
					"text" : "• A period in milliseconds (100) over which a re-attack is reported if the amplitude rises more than (10) dB. The re-attack will result in a \"bang\" in the attack outlet and may give rise to repeated notes in the cooked pitch output."
				}

			}
, 			{
				"box" : 				{
					"id" : "obj-80",
					"linecount" : 4,
					"maxclass" : "comment",
					"numinlets" : 1,
					"numoutlets" : 0,
					"patching_rect" : [ 816.494185090065002, 325.762036681175232, 266.0, 60.0 ],
					"style" : "default",
					"text" : "• Higher partials are weighed less strongly than lower ones in determining the pitch -- this specifies the number of the partial (7) which will be weighted half as strongly as the fundamental."
				}

			}
, 			{
				"box" : 				{
					"id" : "obj-81",
					"maxclass" : "comment",
					"numinlets" : 1,
					"numoutlets" : 0,
					"patching_rect" : [ 816.494185090065002, 393.762036681175232, 266.0, 20.0 ],
					"style" : "default",
					"text" : "• Print the values of these parameters."
				}

			}
, 			{
				"box" : 				{
					"id" : "obj-1",
					"maxclass" : "message",
					"numinlets" : 2,
					"numoutlets" : 1,
					"outlettype" : [ "" ],
					"patching_rect" : [ 557.289484322071075, 141.470370292663574, 52.0, 22.0 ],
					"style" : "default",
					"text" : "loud 0"
				}

			}
, 			{
				"box" : 				{
					"id" : "obj-2",
					"maxclass" : "message",
					"numinlets" : 2,
					"numoutlets" : 1,
					"outlettype" : [ "" ],
					"patching_rect" : [ 613.289484322071075, 141.470370292663574, 53.0, 22.0 ],
					"style" : "default",
					"text" : "loud 1"
				}

			}
, 			{
				"box" : 				{
					"id" : "obj-3",
					"maxclass" : "comment",
					"numinlets" : 1,
					"numoutlets" : 0,
					"patching_rect" : [ 557.289484322071075, 158.470370292663574, 109.0, 20.0 ],
					"style" : "default",
					"text" : "• Loudness type"
				}

			}
, 			{
				"box" : 				{
					"id" : "obj-13",
					"maxclass" : "message",
					"numinlets" : 2,
					"numoutlets" : 1,
					"outlettype" : [ "" ],
					"patching_rect" : [ 557.289484322071075, 177.762036681175232, 52.0, 22.0 ],
					"style" : "default",
					"text" : "bright 0"
				}

			}
, 			{
				"box" : 				{
					"id" : "obj-14",
					"maxclass" : "message",
					"numinlets" : 2,
					"numoutlets" : 1,
					"outlettype" : [ "" ],
					"patching_rect" : [ 614.289484322071075, 177.762036681175232, 52.0, 22.0 ],
					"style" : "default",
					"text" : "bright 1"
				}

			}
, 			{
				"box" : 				{
					"id" : "obj-70",
					"maxclass" : "message",
					"numinlets" : 2,
					"numoutlets" : 1,
					"outlettype" : [ "" ],
					"patching_rect" : [ 557.289484322071075, 105.056577324867249, 52.0, 22.0 ],
					"style" : "default",
					"text" : "linear"
				}

			}
, 			{
				"box" : 				{
					"id" : "obj-16",
					"maxclass" : "message",
					"numinlets" : 2,
					"numoutlets" : 1,
					"outlettype" : [ "" ],
					"patching_rect" : [ 613.289484322071075, 105.056577324867249, 53.0, 22.0 ],
					"style" : "default",
					"text" : "log"
				}

			}
, 			{
				"box" : 				{
					"id" : "obj-71",
					"maxclass" : "comment",
					"numinlets" : 1,
					"numoutlets" : 0,
					"patching_rect" : [ 557.289484322071075, 122.056577324867249, 109.0, 20.0 ],
					"style" : "default",
					"text" : "• Output scale"
				}

			}
, 			{
				"box" : 				{
					"id" : "obj-72",
					"maxclass" : "comment",
					"numinlets" : 1,
					"numoutlets" : 0,
					"patching_rect" : [ 557.289484322071075, 194.762036681175232, 109.0, 20.0 ],
					"style" : "default",
					"text" : "• Brightness type"
				}

			}
, 			{
				"box" : 				{
					"id" : "obj-68",
					"linecount" : 2,
					"maxclass" : "newobj",
					"numinlets" : 1,
					"numoutlets" : 9,
					"outlettype" : [ "list", "float", "float", "float", "list", "bang", "list", "list", "FullPacket" ],
					"patching_rect" : [ 146.289484322071019, 245.762036681175232, 520.0, 35.0 ],
					"style" : "default",
					"text" : "analyzer~ @buffersize 2048 @hopsize 512 @fftsize 4096 @windowtype blackman70 @initialdelay 0 @numpitches 1 @numpeakstofind 10 @numpeakstooutput 10 @barkformat list"
				}

			}
, 			{
				"box" : 				{
					"format" : 6,
					"id" : "obj-61",
					"maxclass" : "flonum",
					"numinlets" : 1,
					"numoutlets" : 2,
					"outlettype" : [ "", "bang" ],
					"parameter_enable" : 0,
					"patching_rect" : [ 250.664484322071075, 353.157725903007531, 50.0, 22.0 ]
				}

			}
, 			{
				"box" : 				{
					"format" : 6,
					"id" : "obj-48",
					"maxclass" : "flonum",
					"numinlets" : 1,
					"numoutlets" : 2,
					"outlettype" : [ "", "bang" ],
					"parameter_enable" : 0,
					"patching_rect" : [ 459.414484322071019, 353.157725903007531, 50.0, 22.0 ]
				}

			}
, 			{
				"box" : 				{
					"format" : 6,
					"id" : "obj-41",
					"maxclass" : "flonum",
					"numinlets" : 1,
					"numoutlets" : 2,
					"outlettype" : [ "", "bang" ],
					"parameter_enable" : 0,
					"patching_rect" : [ 355.039484322071075, 353.157725903007531, 50.0, 22.0 ]
				}

			}
, 			{
				"box" : 				{
					"id" : "obj-32",
					"maxclass" : "newobj",
					"numinlets" : 2,
					"numoutlets" : 1,
					"outlettype" : [ "signal" ],
					"patching_rect" : [ 1962.0, 1255.0, 43.0, 22.0 ],
					"text" : "cycle~"
				}

			}
, 			{
				"box" : 				{
					"id" : "obj-50",
					"maxclass" : "ezadc~",
					"numinlets" : 1,
					"numoutlets" : 2,
					"outlettype" : [ "signal", "signal" ],
					"patching_rect" : [ 146.289484322071019, 13.441859841346741, 45.0, 45.0 ]
				}

			}
, 			{
				"box" : 				{
					"id" : "obj-49",
					"maxclass" : "spectroscope~",
					"numinlets" : 2,
					"numoutlets" : 1,
					"outlettype" : [ "" ],
					"patching_rect" : [ 218.664484322071075, 91.762036681175232, 302.0, 124.0 ]
				}

			}
, 			{
				"box" : 				{
					"fontname" : "Arial",
					"fontsize" : 12.0,
					"id" : "obj-10",
					"linecount" : 3,
					"maxclass" : "comment",
					"numinlets" : 1,
					"numoutlets" : 0,
					"patching_rect" : [ 712.744185090065002, 699.757701903007501, 362.0, 47.0 ],
					"text" : "127.0.0.1 is same as localhost (i.e., this machine); you can change the host IP address if Wekinator is running on a different host."
				}

			}
, 			{
				"box" : 				{
					"fontname" : "Arial",
					"fontsize" : 12.0,
					"id" : "obj-17",
					"linecount" : 2,
					"maxclass" : "comment",
					"numinlets" : 1,
					"numoutlets" : 0,
					"patching_rect" : [ 712.744185090065002, 664.757701903007501, 362.0, 33.0 ],
					"text" : "127.0.0.1 is the host and 6448 is the port here. These are good defaults. "
				}

			}
, 			{
				"box" : 				{
					"fontname" : "Arial",
					"fontsize" : 12.0,
					"id" : "obj-18",
					"linecount" : 5,
					"maxclass" : "comment",
					"numinlets" : 1,
					"numoutlets" : 0,
					"patching_rect" : [ 698.789484322071075, 574.757701903007501, 384.0, 74.0 ],
					"text" : "Advanced tips for Max/MSP users: \n1. Use pak object to send on any feature update; pack object to send only on 1st feature update\n2. MUST have one \"1.\" for every feature; use the number of \"1.\"s as your # of OSC features in Wekinator."
				}

			}
, 			{
				"box" : 				{
					"fontname" : "Arial",
					"fontsize" : 12.0,
					"id" : "obj-82",
					"maxclass" : "newobj",
					"numinlets" : 1,
					"numoutlets" : 2,
					"outlettype" : [ "bang", "" ],
					"patching_rect" : [ 572.789484322071075, 634.757701903007501, 33.0, 22.0 ],
					"text" : "t b s"
				}

			}
, 			{
				"box" : 				{
					"fontname" : "Arial",
					"fontsize" : 12.0,
					"id" : "obj-77",
					"maxclass" : "newobj",
					"numinlets" : 1,
					"numoutlets" : 3,
					"outlettype" : [ "", "", "OSCTimeTag" ],
					"patching_rect" : [ 572.789484322071075, 679.757701903007501, 111.0, 22.0 ],
					"text" : "OpenSoundControl"
				}

			}
, 			{
				"box" : 				{
					"fontface" : 0,
					"fontname" : "Arial",
					"fontsize" : 12.0,
					"id" : "obj-29",
					"maxclass" : "newobj",
					"numinlets" : 1,
					"numoutlets" : 1,
					"outlettype" : [ "" ],
					"patching_rect" : [ 572.789484322071075, 600.757701903007501, 118.0, 22.0 ],
					"text" : "prepend /wek/inputs"
				}

			}
, 			{
				"box" : 				{
					"fontname" : "Arial",
					"fontsize" : 12.0,
					"id" : "obj-58",
					"maxclass" : "newobj",
					"numinlets" : 4,
					"numoutlets" : 1,
					"outlettype" : [ "" ],
					"patching_rect" : [ 585.789484322071075, 519.849236320648288, 81.0, 22.0 ],
					"text" : "pak 0. 0. 0. 0."
				}

			}
, 			{
				"box" : 				{
					"fontname" : "Arial",
					"fontsize" : 12.0,
					"id" : "obj-53",
					"maxclass" : "newobj",
					"numinlets" : 1,
					"numoutlets" : 0,
					"patching_rect" : [ 572.789484322071075, 724.757701903007501, 135.0, 22.0 ],
					"text" : "udpsend localhost 6448"
				}

			}
 ],
		"lines" : [ 			{
				"patchline" : 				{
					"destination" : [ "obj-68", 0 ],
					"midpoints" : [ 566.789484322071075, 164.310344874858856, 530.0, 164.310344874858856, 530.0, 231.0, 155.789484322071019, 231.0 ],
					"source" : [ "obj-1", 0 ]
				}

			}
, 			{
				"patchline" : 				{
					"destination" : [ "obj-41", 0 ],
					"source" : [ "obj-101", 2 ]
				}

			}
, 			{
				"patchline" : 				{
					"destination" : [ "obj-48", 0 ],
					"source" : [ "obj-101", 3 ]
				}

			}
, 			{
				"patchline" : 				{
					"destination" : [ "obj-61", 0 ],
					"source" : [ "obj-101", 1 ]
				}

			}
, 			{
				"patchline" : 				{
					"destination" : [ "obj-84", 0 ],
					"source" : [ "obj-101", 0 ]
				}

			}
, 			{
				"patchline" : 				{
					"destination" : [ "obj-101", 4 ],
					"source" : [ "obj-103", 0 ]
				}

			}
, 			{
				"patchline" : 				{
					"destination" : [ "obj-101", 5 ],
					"source" : [ "obj-106", 0 ]
				}

			}
, 			{
				"patchline" : 				{
					"destination" : [ "obj-115", 0 ],
					"source" : [ "obj-111", 0 ]
				}

			}
, 			{
				"patchline" : 				{
					"destination" : [ "obj-68", 0 ],
					"midpoints" : [ 566.789484322071075, 198.0, 530.0, 198.0, 530.0, 231.0, 155.789484322071019, 231.0 ],
					"source" : [ "obj-13", 0 ]
				}

			}
, 			{
				"patchline" : 				{
					"destination" : [ "obj-68", 0 ],
					"midpoints" : [ 623.789484322071075, 231.0, 155.789484322071019, 231.0 ],
					"source" : [ "obj-14", 0 ]
				}

			}
, 			{
				"patchline" : 				{
					"destination" : [ "obj-151", 0 ],
					"midpoints" : [ 582.289484322071075, 510.0, 659.0, 510.0, 659.0, 480.0, 725.0, 480.0, 725.0, 480.0, 738.289484322071075, 480.0 ],
					"order" : 0,
					"source" : [ "obj-143", 0 ]
				}

			}
, 			{
				"patchline" : 				{
					"destination" : [ "obj-153", 0 ],
					"midpoints" : [ 639.289484322071075, 510.0, 659.0, 510.0, 659.0, 480.0, 752.0, 480.0, 752.0, 480.0, 766.289484322071075, 480.0 ],
					"source" : [ "obj-143", 2 ]
				}

			}
, 			{
				"patchline" : 				{
					"destination" : [ "obj-19", 0 ],
					"midpoints" : [ 610.789484322071075, 510.0, 582.0, 510.0, 582.0, 555.0, 582.289484322071075, 555.0 ],
					"source" : [ "obj-143", 1 ]
				}

			}
, 			{
				"patchline" : 				{
					"destination" : [ "obj-19", 0 ],
					"order" : 1,
					"source" : [ "obj-143", 0 ]
				}

			}
, 			{
				"patchline" : 				{
					"destination" : [ "obj-143", 1 ],
					"source" : [ "obj-144", 0 ]
				}

			}
, 			{
				"patchline" : 				{
					"destination" : [ "obj-68", 0 ],
					"midpoints" : [ 622.789484322071075, 96.0, 530.0, 96.0, 530.0, 231.0, 155.789484322071019, 231.0 ],
					"source" : [ "obj-16", 0 ]
				}

			}
, 			{
				"patchline" : 				{
					"destination" : [ "obj-29", 0 ],
					"source" : [ "obj-19", 0 ]
				}

			}
, 			{
				"patchline" : 				{
					"destination" : [ "obj-68", 0 ],
					"midpoints" : [ 622.789484322071075, 231.0, 155.789484322071019, 231.0 ],
					"source" : [ "obj-2", 0 ]
				}

			}
, 			{
				"patchline" : 				{
					"destination" : [ "obj-82", 0 ],
					"midpoints" : [ 582.289484322071075, 622.757701903007501, 582.289484322071075, 622.757701903007501 ],
					"source" : [ "obj-29", 0 ]
				}

			}
, 			{
				"patchline" : 				{
					"destination" : [ "obj-58", 2 ],
					"midpoints" : [ 364.539484322071075, 378.0, 350.0, 378.0, 350.0, 764.0, 566.0, 764.0, 566.0, 510.5, 636.622817655404447, 510.5 ],
					"order" : 0,
					"source" : [ "obj-41", 0 ]
				}

			}
, 			{
				"patchline" : 				{
					"destination" : [ "obj-98", 0 ],
					"order" : 1,
					"source" : [ "obj-41", 0 ]
				}

			}
, 			{
				"patchline" : 				{
					"destination" : [ "obj-30", 0 ],
					"order" : 1,
					"source" : [ "obj-48", 0 ]
				}

			}
, 			{
				"patchline" : 				{
					"destination" : [ "obj-58", 3 ],
					"midpoints" : [ 468.914484322071019, 378.0, 455.0, 378.0, 455.0, 764.0, 566.0, 764.0, 566.0, 510.0, 657.289484322071075, 510.0 ],
					"order" : 0,
					"source" : [ "obj-48", 0 ]
				}

			}
, 			{
				"patchline" : 				{
					"destination" : [ "obj-49", 0 ],
					"order" : 0,
					"source" : [ "obj-50", 0 ]
				}

			}
, 			{
				"patchline" : 				{
					"destination" : [ "obj-68", 0 ],
					"order" : 1,
					"source" : [ "obj-50", 0 ]
				}

			}
, 			{
				"patchline" : 				{
					"destination" : [ "obj-19", 1 ],
					"source" : [ "obj-58", 0 ]
				}

			}
, 			{
				"patchline" : 				{
					"destination" : [ "obj-143", 0 ],
					"midpoints" : [ 260.164484322071075, 378.0, 245.0, 378.0, 245.0, 764.0, 566.0, 764.0, 566.0, 478.0, 582.289484322071075, 478.0 ],
					"order" : 1,
					"source" : [ "obj-61", 0 ]
				}

			}
, 			{
				"patchline" : 				{
					"destination" : [ "obj-58", 1 ],
					"midpoints" : [ 260.164484322071075, 378.0, 245.0, 378.0, 245.0, 764.0, 566.0, 764.0, 566.0, 510.0, 615.956150988737704, 510.0 ],
					"order" : 0,
					"source" : [ "obj-61", 0 ]
				}

			}
, 			{
				"patchline" : 				{
					"destination" : [ "obj-99", 0 ],
					"order" : 2,
					"source" : [ "obj-61", 0 ]
				}

			}
, 			{
				"patchline" : 				{
					"destination" : [ "obj-68", 0 ],
					"midpoints" : [ 722.244185090065002, 270.0, 677.0, 270.0, 677.0, 231.0, 155.789484322071019, 231.0 ],
					"source" : [ "obj-66", 0 ]
				}

			}
, 			{
				"patchline" : 				{
					"destination" : [ "obj-68", 0 ],
					"midpoints" : [ 722.244185090065002, 231.0, 155.789484322071019, 231.0 ],
					"source" : [ "obj-67", 0 ]
				}

			}
, 			{
				"patchline" : 				{
					"destination" : [ "obj-101", 3 ],
					"source" : [ "obj-68", 3 ]
				}

			}
, 			{
				"patchline" : 				{
					"destination" : [ "obj-101", 2 ],
					"source" : [ "obj-68", 2 ]
				}

			}
, 			{
				"patchline" : 				{
					"destination" : [ "obj-101", 1 ],
					"source" : [ "obj-68", 1 ]
				}

			}
, 			{
				"patchline" : 				{
					"destination" : [ "obj-101", 0 ],
					"source" : [ "obj-68", 0 ]
				}

			}
, 			{
				"patchline" : 				{
					"destination" : [ "obj-68", 0 ],
					"midpoints" : [ 566.789484322071075, 125.103448748588562, 530.0, 125.103448748588562, 530.0, 231.0, 155.789484322071019, 231.0 ],
					"source" : [ "obj-70", 0 ]
				}

			}
, 			{
				"patchline" : 				{
					"destination" : [ "obj-68", 0 ],
					"midpoints" : [ 722.244185090065002, 417.0, 677.0, 417.0, 677.0, 231.0, 155.789484322071019, 231.0 ],
					"source" : [ "obj-73", 0 ]
				}

			}
, 			{
				"patchline" : 				{
					"destination" : [ "obj-68", 0 ],
					"midpoints" : [ 722.244185090065002, 348.0, 677.0, 348.0, 677.0, 231.0, 155.789484322071019, 231.0 ],
					"source" : [ "obj-74", 0 ]
				}

			}
, 			{
				"patchline" : 				{
					"destination" : [ "obj-68", 0 ],
					"midpoints" : [ 722.244185090065002, 168.0, 677.0, 168.0, 677.0, 231.0, 155.789484322071019, 231.0 ],
					"source" : [ "obj-75", 0 ]
				}

			}
, 			{
				"patchline" : 				{
					"destination" : [ "obj-53", 0 ],
					"midpoints" : [ 582.289484322071075, 700.757701903007501, 582.289484322071075, 700.757701903007501 ],
					"source" : [ "obj-77", 0 ]
				}

			}
, 			{
				"patchline" : 				{
					"destination" : [ "obj-77", 0 ],
					"midpoints" : [ 596.289484322071075, 664.757701903007501, 582.289484322071075, 664.757701903007501 ],
					"source" : [ "obj-82", 1 ]
				}

			}
, 			{
				"patchline" : 				{
					"destination" : [ "obj-77", 0 ],
					"midpoints" : [ 582.289484322071075, 655.757701903007501, 582.289484322071075, 655.757701903007501 ],
					"source" : [ "obj-82", 0 ]
				}

			}
, 			{
				"patchline" : 				{
					"destination" : [ "obj-111", 0 ],
					"order" : 1,
					"source" : [ "obj-84", 0 ]
				}

			}
, 			{
				"patchline" : 				{
					"destination" : [ "obj-58", 0 ],
					"midpoints" : [ 155.789484322071075, 378.0, 131.0, 378.0, 131.0, 764.0, 392.0, 764.0, 392.0, 764.0, 431.0, 764.0, 431.0, 764.0, 566.0, 764.0, 566.0, 510.0, 595.289484322071075, 510.0 ],
					"order" : 0,
					"source" : [ "obj-84", 0 ]
				}

			}
 ],
		"parameters" : 		{
			"obj-101::obj-63::obj-15" : [ "pictctrl[41]", "pictctrl[2]", 0 ],
			"obj-101::obj-39::obj-10" : [ "range[4]", "range", 0 ],
			"obj-101::obj-52::obj-5" : [ "pictctrl[5]", "pictctrl[1]", 0 ],
			"obj-101::obj-63::obj-5" : [ "pictctrl[43]", "pictctrl[1]", 0 ],
			"obj-101::obj-63::obj-12" : [ "pictctrl[44]", "pictctrl", 0 ],
			"obj-101::obj-39::obj-51" : [ "pictctrl[11]", "pictctrl[2]", 0 ],
			"obj-101::obj-52::obj-51" : [ "pictctrl[8]", "pictctrl[2]", 0 ],
			"obj-101::obj-39::obj-15" : [ "pictctrl[10]", "pictctrl[2]", 0 ],
			"obj-101::obj-52::obj-15" : [ "pictctrl[6]", "pictctrl[2]", 0 ],
			"obj-101::obj-63::obj-10" : [ "range[3]", "range", 0 ],
			"obj-101::obj-39::obj-37" : [ "smoothing[2]", "smoothing", 0 ],
			"obj-101::obj-63::obj-51" : [ "pictctrl[42]", "pictctrl[2]", 0 ],
			"obj-101::obj-52::obj-10" : [ "range[5]", "range", 0 ],
			"obj-101::obj-63::obj-37" : [ "smoothing[4]", "smoothing", 0 ],
			"obj-101::obj-39::obj-5" : [ "pictctrl[7]", "pictctrl[1]", 0 ],
			"obj-101::obj-39::obj-12" : [ "pictctrl[12]", "pictctrl", 0 ],
			"obj-101::obj-52::obj-12" : [ "pictctrl[9]", "pictctrl", 0 ],
			"obj-101::obj-52::obj-37" : [ "smoothing[1]", "smoothing", 0 ],
			"parameterbanks" : 			{

			}
,
			"parameter_overrides" : 			{
				"obj-101::obj-52::obj-5" : 				{
					"parameter_longname" : "pictctrl[5]"
				}
,
				"obj-101::obj-39::obj-51" : 				{
					"parameter_longname" : "pictctrl[11]"
				}
,
				"obj-101::obj-52::obj-51" : 				{
					"parameter_longname" : "pictctrl[8]"
				}
,
				"obj-101::obj-39::obj-15" : 				{
					"parameter_longname" : "pictctrl[10]"
				}
,
				"obj-101::obj-52::obj-15" : 				{
					"parameter_longname" : "pictctrl[6]"
				}
,
				"obj-101::obj-39::obj-37" : 				{
					"parameter_longname" : "smoothing[2]"
				}
,
				"obj-101::obj-39::obj-5" : 				{
					"parameter_longname" : "pictctrl[7]"
				}
,
				"obj-101::obj-39::obj-12" : 				{
					"parameter_longname" : "pictctrl[12]"
				}
,
				"obj-101::obj-52::obj-12" : 				{
					"parameter_longname" : "pictctrl[9]"
				}
,
				"obj-101::obj-52::obj-37" : 				{
					"parameter_longname" : "smoothing[1]"
				}

			}

		}
,
		"dependency_cache" : [ 			{
				"name" : "vz.smoothr.maxpat",
				"bootpath" : "C74:/packages/vizzie/patchers",
				"type" : "JSON",
				"implicit" : 1
			}
, 			{
				"name" : "data-handler-L.maxpat",
				"bootpath" : "C74:/packages/vizzie/patchers",
				"type" : "JSON",
				"implicit" : 1
			}
, 			{
				"name" : "vzgl-object.maxpat",
				"bootpath" : "C74:/packages/vizzie/patchers",
				"type" : "JSON",
				"implicit" : 1
			}
, 			{
				"name" : "vizzie-global.js",
				"bootpath" : "C74:/packages/vizzie/code",
				"type" : "TEXT",
				"implicit" : 1
			}
, 			{
				"name" : "data-handler.maxpat",
				"bootpath" : "C74:/packages/vizzie/patchers",
				"type" : "JSON",
				"implicit" : 1
			}
, 			{
				"name" : "OpenSoundControl.mxo",
				"type" : "iLaX"
			}
, 			{
				"name" : "analyzer~.mxo",
				"type" : "iLaX"
			}
 ],
		"autosave" : 0,
		"styles" : [ 			{
				"name" : "master_style",
				"newobj" : 				{
					"accentcolor" : [ 0.65098, 0.666667, 0.662745, 1.0 ],
					"bgcolor" : [ 1.0, 1.0, 1.0, 1.0 ],
					"textcolor_inverse" : [ 0.0, 0.0, 0.0, 1.0 ]
				}
,
				"ezdac~" : 				{
					"color" : [ 0.0, 0.0, 0.0, 1.0 ],
					"elementcolor" : [ 0.862745, 0.870588, 0.878431, 1.0 ],
					"bgcolor" : [ 0.65098, 0.666667, 0.662745, 1.0 ]
				}
,
				"function" : 				{
					"color" : [ 0.0, 0.0, 0.0, 1.0 ],
					"bgcolor" : [ 0.65098, 0.666667, 0.662745, 1.0 ]
				}
,
				"toggle" : 				{
					"color" : [ 0.0, 0.0, 0.0, 1.0 ],
					"elementcolor" : [ 0.65098, 0.666667, 0.662745, 1.0 ],
					"bgcolor" : [ 0.682032, 0.698052, 0.748716, 1.0 ]
				}
,
				"multislider" : 				{
					"color" : [ 0.0, 0.0, 0.0, 1.0 ],
					"bgcolor" : [ 1.0, 1.0, 1.0, 1.0 ]
				}
,
				"ezadc~" : 				{
					"color" : [ 0.0, 0.0, 0.0, 1.0 ],
					"elementcolor" : [ 0.862745, 0.870588, 0.878431, 1.0 ],
					"bgcolor" : [ 0.65098, 0.666667, 0.662745, 1.0 ]
				}
,
				"gain~" : 				{
					"color" : [ 1.0, 0.861448, 0.16921, 1.0 ],
					"elementcolor" : [ 0.65098, 0.666667, 0.662745, 1.0 ]
				}
,
				"kslider" : 				{
					"color" : [ 1.0, 1.0, 1.0, 1.0 ],
					"elementcolor" : [ 0.65098, 0.666667, 0.662745, 1.0 ]
				}
,
				"slider" : 				{
					"color" : [ 0.461105, 0.492646, 0.591878, 1.0 ],
					"elementcolor" : [ 0.65098, 0.666667, 0.662745, 1.0 ],
					"bgcolor" : [ 1.0, 1.0, 1.0, 1.0 ]
				}
,
				"button" : 				{
					"color" : [ 1.0, 0.95051, 0.0, 1.0 ],
					"elementcolor" : [ 0.786675, 0.801885, 0.845022, 1.0 ],
					"bgcolor" : [ 0.682032, 0.698052, 0.748716, 1.0 ]
				}
,
				"attrui" : 				{
					"bgcolor" : [ 0.786675, 0.801885, 0.845022, 1.0 ],
					"textcolor_inverse" : [ 0.0, 0.0, 0.0, 1.0 ]
				}
,
				"message" : 				{
					"textcolor_inverse" : [ 0.0, 0.0, 0.0, 1.0 ],
					"bgfillcolor" : 					{
						"type" : "gradient",
						"color1" : [ 0.786675, 0.801885, 0.845022, 1.0 ],
						"color2" : [ 0.65098, 0.666667, 0.662745, 1.0 ],
						"color" : [ 0.290196, 0.309804, 0.301961, 1.0 ],
						"angle" : 270.0,
						"proportion" : 0.39,
						"autogradient" : 0.0
					}

				}
,
				"umenu" : 				{
					"bgfillcolor" : 					{
						"type" : "gradient",
						"color1" : [ 0.786675, 0.801885, 0.845022, 1.0 ],
						"color2" : [ 0.65098, 0.666667, 0.662745, 1.0 ],
						"color" : [ 0.290196, 0.309804, 0.301961, 1.0 ],
						"angle" : 270.0,
						"proportion" : 0.39,
						"autogradient" : 0
					}

				}
,
				"parentstyle" : "",
				"multi" : 0
			}
 ]
	}

}
